<mxfile host="app.diagrams.net" modified="2023-12-30T17:32:22.425Z" agent="Mozilla/5.0 (Windows NT 10.0; Win64; x64) AppleWebKit/537.36 (KHTML, like Gecko) Chrome/120.0.0.0 Safari/537.36" etag="GeCegkkkOO6m_iUdUv6D" version="22.1.16" type="github">
  <diagram name="PÃ¡gina-1" id="kWr0oGkZxPyReERZ5gfp">
    <mxGraphModel dx="1727" dy="860" grid="1" gridSize="10" guides="1" tooltips="1" connect="1" arrows="1" fold="1" page="1" pageScale="1" pageWidth="1920" pageHeight="1080" math="1" shadow="0">
      <root>
        <mxCell id="0" />
        <mxCell id="czWLCF9uIpFlwQmJJkkG-1" value="Grupos" style="" parent="0" />
        <mxCell id="czWLCF9uIpFlwQmJJkkG-2" value="" style="rounded=0;whiteSpace=wrap;html=1;strokeWidth=3;perimeterSpacing=0;glass=0;shadow=0;dashed=1;dashPattern=1 4;fillStyle=auto;" vertex="1" parent="czWLCF9uIpFlwQmJJkkG-1">
          <mxGeometry x="230" y="290" width="240" height="360" as="geometry" />
        </mxCell>
        <mxCell id="czWLCF9uIpFlwQmJJkkG-6" value="" style="rounded=0;whiteSpace=wrap;html=1;strokeWidth=3;perimeterSpacing=0;glass=0;shadow=0;dashed=1;dashPattern=1 4;fillStyle=auto;" vertex="1" parent="czWLCF9uIpFlwQmJJkkG-1">
          <mxGeometry x="1390" y="270" width="300" height="140" as="geometry" />
        </mxCell>
        <mxCell id="czWLCF9uIpFlwQmJJkkG-7" value="" style="rounded=0;whiteSpace=wrap;html=1;strokeWidth=3;perimeterSpacing=0;glass=0;shadow=0;dashed=1;dashPattern=1 4;fillStyle=auto;" vertex="1" parent="czWLCF9uIpFlwQmJJkkG-1">
          <mxGeometry x="500" y="290" width="240" height="360" as="geometry" />
        </mxCell>
        <mxCell id="czWLCF9uIpFlwQmJJkkG-8" value="" style="rounded=0;whiteSpace=wrap;html=1;strokeWidth=3;perimeterSpacing=0;glass=0;shadow=0;dashed=1;dashPattern=1 4;fillStyle=auto;" vertex="1" parent="czWLCF9uIpFlwQmJJkkG-1">
          <mxGeometry x="870" y="290" width="240" height="360" as="geometry" />
        </mxCell>
        <mxCell id="czWLCF9uIpFlwQmJJkkG-9" value="" style="rounded=0;whiteSpace=wrap;html=1;strokeWidth=3;perimeterSpacing=0;glass=0;shadow=0;dashed=1;dashPattern=1 4;fillStyle=auto;" vertex="1" parent="czWLCF9uIpFlwQmJJkkG-1">
          <mxGeometry x="1140" y="290" width="240" height="360" as="geometry" />
        </mxCell>
        <mxCell id="1" value="Rede" style="" parent="0" />
        <mxCell id="czWLCF9uIpFlwQmJJkkG-55" value="" style="edgeStyle=orthogonalEdgeStyle;rounded=0;orthogonalLoop=1;jettySize=auto;html=1;strokeWidth=3;endFill=1;targetPerimeterSpacing=10;endSize=6;" edge="1" parent="1" source="86raS9CCg4e7EtEVCKJU-35" target="czWLCF9uIpFlwQmJJkkG-24">
          <mxGeometry relative="1" as="geometry">
            <mxPoint x="269.9999999999998" y="570" as="targetPoint" />
          </mxGeometry>
        </mxCell>
        <mxCell id="czWLCF9uIpFlwQmJJkkG-53" value="" style="edgeStyle=orthogonalEdgeStyle;rounded=0;orthogonalLoop=1;jettySize=auto;html=1;strokeWidth=3;endFill=1;targetPerimeterSpacing=10;endSize=6;" edge="1" parent="1" source="86raS9CCg4e7EtEVCKJU-36" target="czWLCF9uIpFlwQmJJkkG-19">
          <mxGeometry relative="1" as="geometry">
            <mxPoint x="540" y="570" as="targetPoint" />
          </mxGeometry>
        </mxCell>
        <mxCell id="86raS9CCg4e7EtEVCKJU-66" value="" style="edgeStyle=orthogonalEdgeStyle;rounded=0;orthogonalLoop=1;jettySize=auto;html=1;strokeWidth=3;endArrow=classic;endFill=1;targetPerimeterSpacing=10;endSize=6;" parent="1" source="86raS9CCg4e7EtEVCKJU-37" target="czWLCF9uIpFlwQmJJkkG-31" edge="1">
          <mxGeometry relative="1" as="geometry">
            <mxPoint x="1030" y="670" as="targetPoint" />
          </mxGeometry>
        </mxCell>
        <mxCell id="czWLCF9uIpFlwQmJJkkG-51" value="" style="edgeStyle=orthogonalEdgeStyle;rounded=0;orthogonalLoop=1;jettySize=auto;html=1;strokeWidth=3;endFill=1;targetPerimeterSpacing=10;endSize=6;" edge="1" parent="1" source="86raS9CCg4e7EtEVCKJU-37" target="czWLCF9uIpFlwQmJJkkG-28">
          <mxGeometry relative="1" as="geometry">
            <mxPoint x="910" y="570" as="targetPoint" />
          </mxGeometry>
        </mxCell>
        <mxCell id="86raS9CCg4e7EtEVCKJU-42" value="" style="edgeStyle=orthogonalEdgeStyle;rounded=0;orthogonalLoop=1;jettySize=auto;html=1;strokeWidth=3;endArrow=none;endFill=0;jumpStyle=gap;jumpSize=15;" parent="1" source="86raS9CCg4e7EtEVCKJU-39" target="86raS9CCg4e7EtEVCKJU-34" edge="1">
          <mxGeometry relative="1" as="geometry">
            <mxPoint x="700" y="670" as="targetPoint" />
          </mxGeometry>
        </mxCell>
        <mxCell id="86raS9CCg4e7EtEVCKJU-71" value="" style="edgeStyle=orthogonalEdgeStyle;rounded=0;orthogonalLoop=1;jettySize=auto;html=1;strokeWidth=3;endArrow=classic;endFill=1;targetPerimeterSpacing=10;endSize=6;" parent="1" source="86raS9CCg4e7EtEVCKJU-2" target="86raS9CCg4e7EtEVCKJU-32" edge="1">
          <mxGeometry relative="1" as="geometry" />
        </mxCell>
        <mxCell id="86raS9CCg4e7EtEVCKJU-2" value="$$\sigma$$" style="rounded=1;whiteSpace=wrap;html=1;fontSize=40;verticalAlign=middle;fontStyle=0;spacing=2;spacingBottom=4;strokeWidth=3;fillColor=#FFFFFF;strokeColor=#000000;fontColor=#000000;" parent="1" vertex="1">
          <mxGeometry x="310" y="310" width="80" height="80" as="geometry" />
        </mxCell>
        <mxCell id="86raS9CCg4e7EtEVCKJU-76" value="" style="edgeStyle=orthogonalEdgeStyle;rounded=0;orthogonalLoop=1;jettySize=auto;html=1;strokeWidth=3;endArrow=classic;endFill=1;targetPerimeterSpacing=10;endSize=6;" parent="1" source="86raS9CCg4e7EtEVCKJU-3" target="86raS9CCg4e7EtEVCKJU-20" edge="1">
          <mxGeometry relative="1" as="geometry" />
        </mxCell>
        <mxCell id="86raS9CCg4e7EtEVCKJU-3" value="$$\tanh$$" style="rounded=1;whiteSpace=wrap;html=1;fontSize=25;verticalAlign=middle;fontStyle=0;spacing=2;spacingBottom=0;strokeWidth=3;fontColor=#000000;strokeColor=#000000;" parent="1" vertex="1">
          <mxGeometry x="950" y="310" width="80" height="80" as="geometry" />
        </mxCell>
        <mxCell id="86raS9CCg4e7EtEVCKJU-40" value="" style="edgeStyle=orthogonalEdgeStyle;rounded=0;orthogonalLoop=1;jettySize=auto;html=1;strokeWidth=3;endArrow=none;endFill=0;jumpStyle=gap;jumpSize=15;" parent="1" source="86raS9CCg4e7EtEVCKJU-12" target="86raS9CCg4e7EtEVCKJU-39" edge="1">
          <mxGeometry relative="1" as="geometry" />
        </mxCell>
        <mxCell id="czWLCF9uIpFlwQmJJkkG-83" value="" style="edgeStyle=orthogonalEdgeStyle;rounded=0;orthogonalLoop=1;jettySize=auto;html=1;strokeWidth=3;endFill=1;targetPerimeterSpacing=10;endSize=6;" edge="1" parent="1" source="86raS9CCg4e7EtEVCKJU-12" target="czWLCF9uIpFlwQmJJkkG-72">
          <mxGeometry relative="1" as="geometry" />
        </mxCell>
        <mxCell id="86raS9CCg4e7EtEVCKJU-12" value="" style="shape=waypoint;sketch=0;size=6;pointerEvents=1;points=[];fillColor=default;resizable=0;rotatable=0;perimeter=centerPerimeter;snapToPoint=1;fontSize=50;rounded=1;fontStyle=0;spacing=2;spacingBottom=10;strokeWidth=4;" parent="1" vertex="1">
          <mxGeometry x="340" y="680" width="20" height="20" as="geometry" />
        </mxCell>
        <mxCell id="86raS9CCg4e7EtEVCKJU-80" value="" style="edgeStyle=orthogonalEdgeStyle;rounded=0;orthogonalLoop=1;jettySize=auto;html=1;strokeWidth=3;endArrow=classic;endFill=1;targetPerimeterSpacing=10;endSize=6;" parent="1" source="86raS9CCg4e7EtEVCKJU-18" target="86raS9CCg4e7EtEVCKJU-22" edge="1">
          <mxGeometry relative="1" as="geometry" />
        </mxCell>
        <mxCell id="86raS9CCg4e7EtEVCKJU-18" value="$$\mathbb{+}$$" style="ellipse;whiteSpace=wrap;html=1;aspect=fixed;fontStyle=0;fontSize=25;spacingBottom=2;strokeWidth=3;" parent="1" vertex="1">
          <mxGeometry x="600" y="490" width="40" height="40" as="geometry" />
        </mxCell>
        <mxCell id="86raS9CCg4e7EtEVCKJU-73" value="" style="edgeStyle=orthogonalEdgeStyle;rounded=0;orthogonalLoop=1;jettySize=auto;html=1;strokeWidth=3;endArrow=classic;endFill=1;targetPerimeterSpacing=10;endSize=6;" parent="1" source="86raS9CCg4e7EtEVCKJU-20" target="86raS9CCg4e7EtEVCKJU-31" edge="1">
          <mxGeometry relative="1" as="geometry">
            <mxPoint x="799.9999999999995" y="250" as="targetPoint" />
          </mxGeometry>
        </mxCell>
        <mxCell id="86raS9CCg4e7EtEVCKJU-20" value="$$\mathbb{\odot}$$" style="ellipse;whiteSpace=wrap;html=1;aspect=fixed;fontStyle=0;fontSize=25;spacingBottom=2;strokeWidth=3;" parent="1" vertex="1">
          <mxGeometry x="780" y="330" width="40" height="40" as="geometry" />
        </mxCell>
        <mxCell id="86raS9CCg4e7EtEVCKJU-74" value="" style="edgeStyle=orthogonalEdgeStyle;rounded=0;orthogonalLoop=1;jettySize=auto;html=1;strokeWidth=3;endArrow=classic;endFill=1;targetPerimeterSpacing=10;endSize=6;" parent="1" source="86raS9CCg4e7EtEVCKJU-22" target="86raS9CCg4e7EtEVCKJU-20" edge="1">
          <mxGeometry relative="1" as="geometry" />
        </mxCell>
        <mxCell id="86raS9CCg4e7EtEVCKJU-22" value="$$\sigma$$" style="rounded=1;whiteSpace=wrap;html=1;fontSize=40;verticalAlign=middle;fontStyle=0;spacing=2;spacingBottom=4;strokeWidth=3;strokeColor=#000000;fontColor=#000000;" parent="1" vertex="1">
          <mxGeometry x="580" y="310" width="80" height="80" as="geometry" />
        </mxCell>
        <mxCell id="86raS9CCg4e7EtEVCKJU-77" value="" style="edgeStyle=orthogonalEdgeStyle;rounded=0;orthogonalLoop=1;jettySize=auto;html=1;strokeWidth=3;endArrow=classic;endFill=1;targetPerimeterSpacing=10;endSize=6;" parent="1" source="86raS9CCg4e7EtEVCKJU-23" target="86raS9CCg4e7EtEVCKJU-27" edge="1">
          <mxGeometry relative="1" as="geometry" />
        </mxCell>
        <mxCell id="86raS9CCg4e7EtEVCKJU-23" value="$$\sigma$$" style="rounded=1;whiteSpace=wrap;html=1;fontSize=40;verticalAlign=middle;fontStyle=0;spacing=2;spacingBottom=4;strokeWidth=3;strokeColor=#000000;fontColor=#000000;" parent="1" vertex="1">
          <mxGeometry x="1220" y="310" width="80" height="80" as="geometry" />
        </mxCell>
        <mxCell id="86raS9CCg4e7EtEVCKJU-78" value="" style="edgeStyle=orthogonalEdgeStyle;rounded=0;orthogonalLoop=1;jettySize=auto;html=1;strokeWidth=3;endArrow=classic;endFill=1;targetPerimeterSpacing=10;endSize=6;" parent="1" source="86raS9CCg4e7EtEVCKJU-26" target="86raS9CCg4e7EtEVCKJU-27" edge="1">
          <mxGeometry relative="1" as="geometry" />
        </mxCell>
        <mxCell id="86raS9CCg4e7EtEVCKJU-26" value="$$\tanh$$" style="rounded=1;whiteSpace=wrap;html=1;fontSize=25;verticalAlign=middle;fontStyle=0;spacing=2;spacingBottom=0;strokeWidth=3;fontColor=#000000;strokeColor=#000000;" parent="1" vertex="1">
          <mxGeometry x="1590" y="310" width="80" height="80" as="geometry" />
        </mxCell>
        <mxCell id="86raS9CCg4e7EtEVCKJU-96" value="" style="edgeStyle=orthogonalEdgeStyle;rounded=0;orthogonalLoop=1;jettySize=auto;html=1;strokeWidth=3;endArrow=classic;endFill=1;" parent="1" source="86raS9CCg4e7EtEVCKJU-27" target="86raS9CCg4e7EtEVCKJU-85" edge="1">
          <mxGeometry relative="1" as="geometry">
            <mxPoint x="1330" y="470" as="targetPoint" />
            <Array as="points">
              <mxPoint x="1450" y="690" />
            </Array>
          </mxGeometry>
        </mxCell>
        <mxCell id="86raS9CCg4e7EtEVCKJU-27" value="$$\mathbb{\odot}$$" style="ellipse;whiteSpace=wrap;html=1;aspect=fixed;fontStyle=0;fontSize=25;spacingBottom=2;strokeWidth=3;" parent="1" vertex="1">
          <mxGeometry x="1430" y="330" width="40" height="40" as="geometry" />
        </mxCell>
        <mxCell id="86raS9CCg4e7EtEVCKJU-81" value="" style="edgeStyle=orthogonalEdgeStyle;rounded=0;orthogonalLoop=1;jettySize=auto;html=1;strokeWidth=3;endArrow=classic;endFill=1;targetPerimeterSpacing=10;endSize=6;" parent="1" source="86raS9CCg4e7EtEVCKJU-28" target="86raS9CCg4e7EtEVCKJU-3" edge="1">
          <mxGeometry relative="1" as="geometry" />
        </mxCell>
        <mxCell id="86raS9CCg4e7EtEVCKJU-28" value="$$\mathbb{+}$$" style="ellipse;whiteSpace=wrap;html=1;aspect=fixed;fontStyle=0;fontSize=25;spacingBottom=2;strokeWidth=3;" parent="1" vertex="1">
          <mxGeometry x="970" y="490" width="40" height="40" as="geometry" />
        </mxCell>
        <mxCell id="86raS9CCg4e7EtEVCKJU-82" value="" style="edgeStyle=orthogonalEdgeStyle;rounded=0;orthogonalLoop=1;jettySize=auto;html=1;strokeWidth=3;endArrow=classic;endFill=1;targetPerimeterSpacing=10;endSize=6;" parent="1" source="86raS9CCg4e7EtEVCKJU-29" target="86raS9CCg4e7EtEVCKJU-23" edge="1">
          <mxGeometry relative="1" as="geometry" />
        </mxCell>
        <mxCell id="86raS9CCg4e7EtEVCKJU-29" value="$$\mathbb{+}$$" style="ellipse;whiteSpace=wrap;html=1;aspect=fixed;fontStyle=0;fontSize=25;spacingBottom=2;strokeWidth=3;" parent="1" vertex="1">
          <mxGeometry x="1240" y="490" width="40" height="40" as="geometry" />
        </mxCell>
        <mxCell id="86raS9CCg4e7EtEVCKJU-83" value="" style="edgeStyle=orthogonalEdgeStyle;rounded=0;orthogonalLoop=1;jettySize=auto;html=1;strokeWidth=3;endArrow=classic;endFill=1;targetPerimeterSpacing=10;endSize=6;" parent="1" source="86raS9CCg4e7EtEVCKJU-30" target="86raS9CCg4e7EtEVCKJU-2" edge="1">
          <mxGeometry relative="1" as="geometry" />
        </mxCell>
        <mxCell id="86raS9CCg4e7EtEVCKJU-30" value="$$\mathbb{+}$$" style="ellipse;whiteSpace=wrap;html=1;aspect=fixed;fontStyle=0;fontSize=25;spacingBottom=2;strokeWidth=3;" parent="1" vertex="1">
          <mxGeometry x="330" y="490" width="40" height="40" as="geometry" />
        </mxCell>
        <mxCell id="86raS9CCg4e7EtEVCKJU-70" value="" style="edgeStyle=orthogonalEdgeStyle;rounded=0;orthogonalLoop=1;jettySize=auto;html=1;strokeWidth=3;endArrow=none;endFill=0;" parent="1" source="86raS9CCg4e7EtEVCKJU-31" target="86raS9CCg4e7EtEVCKJU-38" edge="1">
          <mxGeometry relative="1" as="geometry">
            <mxPoint x="900" y="190" as="targetPoint" />
          </mxGeometry>
        </mxCell>
        <mxCell id="86raS9CCg4e7EtEVCKJU-31" value="$$\mathbb{+}$$" style="ellipse;whiteSpace=wrap;html=1;aspect=fixed;fontStyle=0;fontSize=25;spacingBottom=2;strokeWidth=3;" parent="1" vertex="1">
          <mxGeometry x="780" y="190" width="40" height="40" as="geometry" />
        </mxCell>
        <mxCell id="86raS9CCg4e7EtEVCKJU-68" value="" style="edgeStyle=orthogonalEdgeStyle;rounded=0;orthogonalLoop=1;jettySize=auto;html=1;strokeWidth=3;endArrow=classic;endFill=1;targetPerimeterSpacing=10;endSize=6;" parent="1" source="86raS9CCg4e7EtEVCKJU-32" target="86raS9CCg4e7EtEVCKJU-31" edge="1">
          <mxGeometry relative="1" as="geometry">
            <mxPoint x="490" y="190" as="targetPoint" />
          </mxGeometry>
        </mxCell>
        <mxCell id="86raS9CCg4e7EtEVCKJU-32" value="$$\mathbb{\odot}$$" style="ellipse;whiteSpace=wrap;html=1;aspect=fixed;fontStyle=0;fontSize=25;spacingBottom=2;strokeWidth=3;" parent="1" vertex="1">
          <mxGeometry x="330" y="190" width="40" height="40" as="geometry" />
        </mxCell>
        <mxCell id="86raS9CCg4e7EtEVCKJU-46" value="" style="edgeStyle=orthogonalEdgeStyle;rounded=0;orthogonalLoop=1;jettySize=auto;html=1;strokeWidth=3;jumpStyle=gap;jumpSize=15;endArrow=classic;endFill=1;targetPerimeterSpacing=10;endSize=6;" parent="1" source="86raS9CCg4e7EtEVCKJU-34" target="czWLCF9uIpFlwQmJJkkG-75" edge="1">
          <mxGeometry relative="1" as="geometry">
            <mxPoint x="950" y="590" as="targetPoint" />
            <Array as="points">
              <mxPoint x="1260" y="690" />
            </Array>
          </mxGeometry>
        </mxCell>
        <mxCell id="czWLCF9uIpFlwQmJJkkG-85" value="" style="edgeStyle=orthogonalEdgeStyle;rounded=0;orthogonalLoop=1;jettySize=auto;html=1;strokeWidth=3;endFill=1;targetPerimeterSpacing=10;endSize=6;" edge="1" parent="1" source="86raS9CCg4e7EtEVCKJU-34" target="czWLCF9uIpFlwQmJJkkG-74">
          <mxGeometry relative="1" as="geometry" />
        </mxCell>
        <mxCell id="86raS9CCg4e7EtEVCKJU-34" value="" style="shape=waypoint;sketch=0;size=6;pointerEvents=1;points=[];fillColor=default;resizable=0;rotatable=0;perimeter=centerPerimeter;snapToPoint=1;fontSize=50;rounded=1;fontStyle=0;spacing=2;spacingBottom=10;strokeWidth=4;" parent="1" vertex="1">
          <mxGeometry x="980" y="680" width="20" height="20" as="geometry" />
        </mxCell>
        <mxCell id="86raS9CCg4e7EtEVCKJU-62" value="" style="edgeStyle=orthogonalEdgeStyle;rounded=0;orthogonalLoop=1;jettySize=auto;html=1;strokeWidth=3;endArrow=none;endFill=0;" parent="1" source="86raS9CCg4e7EtEVCKJU-35" target="86raS9CCg4e7EtEVCKJU-36" edge="1">
          <mxGeometry relative="1" as="geometry">
            <mxPoint x="510" y="750" as="targetPoint" />
          </mxGeometry>
        </mxCell>
        <mxCell id="86raS9CCg4e7EtEVCKJU-35" value="" style="shape=waypoint;sketch=0;size=6;pointerEvents=1;points=[];fillColor=default;resizable=0;rotatable=0;perimeter=centerPerimeter;snapToPoint=1;fontSize=50;rounded=1;fontStyle=0;spacing=2;spacingBottom=10;strokeWidth=4;" parent="1" vertex="1">
          <mxGeometry x="260" y="720" width="20" height="20" as="geometry" />
        </mxCell>
        <mxCell id="86raS9CCg4e7EtEVCKJU-64" value="" style="edgeStyle=orthogonalEdgeStyle;rounded=0;orthogonalLoop=1;jettySize=auto;html=1;entryX=0.302;entryY=0.485;entryDx=0;entryDy=0;entryPerimeter=0;strokeWidth=3;endArrow=none;endFill=0;" parent="1" source="86raS9CCg4e7EtEVCKJU-36" target="86raS9CCg4e7EtEVCKJU-37" edge="1">
          <mxGeometry relative="1" as="geometry">
            <mxPoint x="780" y="750" as="targetPoint" />
          </mxGeometry>
        </mxCell>
        <mxCell id="86raS9CCg4e7EtEVCKJU-36" value="" style="shape=waypoint;sketch=0;size=6;pointerEvents=1;points=[];fillColor=default;resizable=0;rotatable=0;perimeter=centerPerimeter;snapToPoint=1;fontSize=50;rounded=1;fontStyle=0;spacing=2;spacingBottom=10;strokeWidth=4;" parent="1" vertex="1">
          <mxGeometry x="530" y="720" width="20" height="20" as="geometry" />
        </mxCell>
        <mxCell id="86raS9CCg4e7EtEVCKJU-37" value="" style="shape=waypoint;sketch=0;size=6;pointerEvents=1;points=[];fillColor=default;resizable=0;rotatable=0;perimeter=centerPerimeter;snapToPoint=1;fontSize=50;rounded=1;fontStyle=0;spacing=2;spacingBottom=10;strokeWidth=4;" parent="1" vertex="1">
          <mxGeometry x="900" y="720" width="20" height="20" as="geometry" />
        </mxCell>
        <mxCell id="86raS9CCg4e7EtEVCKJU-79" value="" style="edgeStyle=orthogonalEdgeStyle;rounded=0;orthogonalLoop=1;jettySize=auto;html=1;strokeWidth=3;endArrow=classic;endFill=1;endSize=6;targetPerimeterSpacing=10;" parent="1" source="86raS9CCg4e7EtEVCKJU-38" target="86raS9CCg4e7EtEVCKJU-26" edge="1">
          <mxGeometry relative="1" as="geometry" />
        </mxCell>
        <mxCell id="86raS9CCg4e7EtEVCKJU-97" value="" style="edgeStyle=orthogonalEdgeStyle;rounded=0;orthogonalLoop=1;jettySize=auto;html=1;strokeWidth=3;endArrow=classic;endFill=1;" parent="1" source="86raS9CCg4e7EtEVCKJU-38" target="86raS9CCg4e7EtEVCKJU-84" edge="1">
          <mxGeometry relative="1" as="geometry" />
        </mxCell>
        <mxCell id="86raS9CCg4e7EtEVCKJU-38" value="" style="shape=waypoint;sketch=0;size=6;pointerEvents=1;points=[];fillColor=default;resizable=0;rotatable=0;perimeter=centerPerimeter;snapToPoint=1;fontSize=50;rounded=1;fontStyle=0;spacing=2;spacingBottom=10;strokeWidth=4;" parent="1" vertex="1">
          <mxGeometry x="1620" y="200" width="20" height="20" as="geometry" />
        </mxCell>
        <mxCell id="czWLCF9uIpFlwQmJJkkG-84" value="" style="edgeStyle=orthogonalEdgeStyle;rounded=0;orthogonalLoop=1;jettySize=auto;html=1;strokeWidth=3;endFill=1;targetPerimeterSpacing=10;endSize=6;" edge="1" parent="1" source="86raS9CCg4e7EtEVCKJU-39" target="czWLCF9uIpFlwQmJJkkG-73">
          <mxGeometry relative="1" as="geometry" />
        </mxCell>
        <mxCell id="86raS9CCg4e7EtEVCKJU-39" value="" style="shape=waypoint;sketch=0;size=6;pointerEvents=1;points=[];fillColor=default;resizable=0;rotatable=0;perimeter=centerPerimeter;snapToPoint=1;fontSize=50;rounded=1;fontStyle=0;spacing=2;spacingBottom=10;strokeWidth=4;" parent="1" vertex="1">
          <mxGeometry x="610" y="680" width="20" height="20" as="geometry" />
        </mxCell>
        <mxCell id="86raS9CCg4e7EtEVCKJU-84" value="$$\mathbf{C}_{t}$$" style="shape=waypoint;sketch=0;size=6;pointerEvents=1;points=[];fillColor=none;resizable=0;rotatable=0;perimeter=centerPerimeter;snapToPoint=1;fontSize=25;rounded=1;fontStyle=0;spacing=2;spacingBottom=0;strokeWidth=4;html=1;labelPosition=right;verticalLabelPosition=middle;align=left;verticalAlign=middle;spacingRight=0;spacingLeft=10;strokeColor=none;" parent="1" vertex="1">
          <mxGeometry x="1740" y="200" width="20" height="20" as="geometry" />
        </mxCell>
        <mxCell id="86raS9CCg4e7EtEVCKJU-85" value="$$\mathbf{H}_{t}$$" style="shape=waypoint;sketch=0;size=6;pointerEvents=1;points=[];fillColor=none;resizable=0;rotatable=0;perimeter=centerPerimeter;snapToPoint=1;fontSize=25;rounded=1;fontStyle=0;spacing=2;spacingBottom=0;strokeWidth=4;html=1;labelPosition=right;verticalLabelPosition=middle;align=left;verticalAlign=middle;spacingRight=0;spacingLeft=10;strokeColor=none;" parent="1" vertex="1">
          <mxGeometry x="1750" y="680" width="20" height="20" as="geometry" />
        </mxCell>
        <mxCell id="86raS9CCg4e7EtEVCKJU-92" value="" style="edgeStyle=orthogonalEdgeStyle;rounded=0;orthogonalLoop=1;jettySize=auto;html=1;strokeWidth=3;endArrow=none;endFill=0;jumpStyle=gap;jumpSize=15;" parent="1" source="86raS9CCg4e7EtEVCKJU-86" target="86raS9CCg4e7EtEVCKJU-12" edge="1">
          <mxGeometry relative="1" as="geometry" />
        </mxCell>
        <mxCell id="86raS9CCg4e7EtEVCKJU-86" value="$$\mathbf{H}_{t-1}$$" style="shape=waypoint;sketch=0;size=6;pointerEvents=1;points=[];fillColor=default;resizable=0;rotatable=0;perimeter=centerPerimeter;snapToPoint=1;fontSize=25;rounded=1;fontStyle=0;spacing=2;spacingBottom=0;strokeWidth=4;labelPosition=left;verticalLabelPosition=middle;align=right;verticalAlign=middle;html=1;spacingLeft=0;spacingRight=10;" parent="1" vertex="1">
          <mxGeometry x="140" y="680" width="20" height="20" as="geometry" />
        </mxCell>
        <mxCell id="86raS9CCg4e7EtEVCKJU-94" value="" style="edgeStyle=orthogonalEdgeStyle;rounded=0;orthogonalLoop=1;jettySize=auto;html=1;strokeWidth=3;endArrow=none;endFill=0;" parent="1" source="86raS9CCg4e7EtEVCKJU-88" target="86raS9CCg4e7EtEVCKJU-35" edge="1">
          <mxGeometry relative="1" as="geometry">
            <mxPoint x="289.99999999999955" y="770" as="targetPoint" />
            <Array as="points">
              <mxPoint x="270" y="790" />
              <mxPoint x="270" y="790" />
            </Array>
          </mxGeometry>
        </mxCell>
        <mxCell id="86raS9CCg4e7EtEVCKJU-88" value="$$\mathbf{X}_t$$" style="shape=waypoint;sketch=0;size=6;pointerEvents=1;points=[];fillColor=default;resizable=0;rotatable=0;perimeter=centerPerimeter;snapToPoint=1;fontSize=25;rounded=1;fontStyle=0;spacing=2;spacingBottom=0;strokeWidth=4;html=1;labelPosition=center;verticalLabelPosition=bottom;align=center;verticalAlign=middle;spacingTop=10;" parent="1" vertex="1">
          <mxGeometry x="260" y="800" width="20" height="20" as="geometry" />
        </mxCell>
        <mxCell id="86raS9CCg4e7EtEVCKJU-91" value="" style="edgeStyle=orthogonalEdgeStyle;rounded=0;orthogonalLoop=1;jettySize=auto;html=1;strokeWidth=3;endArrow=classic;endFill=1;targetPerimeterSpacing=10;" parent="1" source="86raS9CCg4e7EtEVCKJU-89" target="86raS9CCg4e7EtEVCKJU-32" edge="1">
          <mxGeometry relative="1" as="geometry">
            <mxPoint x="289.99999999999955" y="190" as="targetPoint" />
          </mxGeometry>
        </mxCell>
        <mxCell id="86raS9CCg4e7EtEVCKJU-89" value="$$\mathbf{C}_{t-1}$$" style="shape=waypoint;sketch=0;size=6;pointerEvents=1;points=[];fillColor=default;resizable=0;rotatable=0;perimeter=centerPerimeter;snapToPoint=1;fontSize=25;rounded=1;fontStyle=0;spacing=2;spacingBottom=0;strokeWidth=4;labelPosition=left;verticalLabelPosition=middle;align=right;verticalAlign=middle;html=1;spacingLeft=0;spacingRight=10;" parent="1" vertex="1">
          <mxGeometry x="140" y="200" width="20" height="20" as="geometry" />
        </mxCell>
        <mxCell id="czWLCF9uIpFlwQmJJkkG-40" value="" style="edgeStyle=orthogonalEdgeStyle;rounded=0;orthogonalLoop=1;jettySize=auto;html=1;strokeWidth=3;endFill=1;targetPerimeterSpacing=10;endSize=6;" edge="1" parent="1" source="czWLCF9uIpFlwQmJJkkG-17" target="86raS9CCg4e7EtEVCKJU-30">
          <mxGeometry relative="1" as="geometry" />
        </mxCell>
        <mxCell id="czWLCF9uIpFlwQmJJkkG-17" value="$$\mathbf{b}_f$$" style="shape=waypoint;sketch=0;size=6;pointerEvents=1;points=[];fillColor=default;resizable=0;rotatable=0;perimeter=centerPerimeter;snapToPoint=1;fontSize=25;rounded=1;fontStyle=0;spacing=2;spacingBottom=10;strokeWidth=4;html=1;labelPosition=center;verticalLabelPosition=top;align=center;verticalAlign=middle;" vertex="1" parent="1">
          <mxGeometry x="420" y="500" width="20" height="20" as="geometry" />
        </mxCell>
        <mxCell id="czWLCF9uIpFlwQmJJkkG-42" value="" style="edgeStyle=orthogonalEdgeStyle;rounded=0;orthogonalLoop=1;jettySize=auto;html=1;strokeWidth=3;endFill=1;targetPerimeterSpacing=10;endSize=6;" edge="1" parent="1" source="czWLCF9uIpFlwQmJJkkG-19" target="86raS9CCg4e7EtEVCKJU-18">
          <mxGeometry relative="1" as="geometry" />
        </mxCell>
        <mxCell id="czWLCF9uIpFlwQmJJkkG-19" value="$$\mathbb{\bullet}$$" style="ellipse;whiteSpace=wrap;html=1;aspect=fixed;fontStyle=0;fontSize=25;spacingBottom=2;strokeWidth=3;" vertex="1" parent="1">
          <mxGeometry x="520" y="490" width="40" height="40" as="geometry" />
        </mxCell>
        <mxCell id="czWLCF9uIpFlwQmJJkkG-38" value="" style="edgeStyle=orthogonalEdgeStyle;rounded=0;orthogonalLoop=1;jettySize=auto;html=1;strokeWidth=3;endFill=1;targetPerimeterSpacing=10;endSize=6;" edge="1" parent="1" source="czWLCF9uIpFlwQmJJkkG-20" target="czWLCF9uIpFlwQmJJkkG-19">
          <mxGeometry relative="1" as="geometry" />
        </mxCell>
        <mxCell id="czWLCF9uIpFlwQmJJkkG-20" value="$$\mathbf{W}_i$$" style="shape=waypoint;sketch=0;size=6;pointerEvents=1;points=[];fillColor=default;resizable=0;rotatable=0;perimeter=centerPerimeter;snapToPoint=1;fontSize=25;rounded=1;fontStyle=0;spacing=2;spacingBottom=10;strokeWidth=4;labelPosition=center;verticalLabelPosition=top;align=center;verticalAlign=middle;html=1;" vertex="1" parent="1">
          <mxGeometry x="530" y="420" width="20" height="20" as="geometry" />
        </mxCell>
        <mxCell id="czWLCF9uIpFlwQmJJkkG-33" value="" style="edgeStyle=orthogonalEdgeStyle;rounded=0;orthogonalLoop=1;jettySize=auto;html=1;strokeWidth=3;endFill=1;targetPerimeterSpacing=10;endSize=6;" edge="1" parent="1" source="czWLCF9uIpFlwQmJJkkG-24" target="86raS9CCg4e7EtEVCKJU-30">
          <mxGeometry relative="1" as="geometry" />
        </mxCell>
        <mxCell id="czWLCF9uIpFlwQmJJkkG-24" value="$$\mathbb{\bullet}$$" style="ellipse;whiteSpace=wrap;html=1;aspect=fixed;fontStyle=0;fontSize=25;spacingBottom=2;strokeWidth=3;" vertex="1" parent="1">
          <mxGeometry x="250" y="490" width="40" height="40" as="geometry" />
        </mxCell>
        <mxCell id="czWLCF9uIpFlwQmJJkkG-37" value="" style="edgeStyle=orthogonalEdgeStyle;rounded=0;orthogonalLoop=1;jettySize=auto;html=1;strokeWidth=3;endFill=1;targetPerimeterSpacing=10;endSize=6;" edge="1" parent="1" source="czWLCF9uIpFlwQmJJkkG-25" target="czWLCF9uIpFlwQmJJkkG-24">
          <mxGeometry relative="1" as="geometry" />
        </mxCell>
        <mxCell id="czWLCF9uIpFlwQmJJkkG-25" value="$$\mathbf{W}_f$$" style="shape=waypoint;sketch=0;size=6;pointerEvents=1;points=[];fillColor=default;resizable=0;rotatable=0;perimeter=centerPerimeter;snapToPoint=1;rounded=1;spacing=2;spacingBottom=10;strokeWidth=4;verticalAlign=middle;labelPosition=center;verticalLabelPosition=top;align=center;html=1;fontSize=25;" vertex="1" parent="1">
          <mxGeometry x="260" y="420" width="20" height="20" as="geometry" />
        </mxCell>
        <mxCell id="czWLCF9uIpFlwQmJJkkG-41" value="" style="edgeStyle=orthogonalEdgeStyle;rounded=0;orthogonalLoop=1;jettySize=auto;html=1;strokeWidth=3;endFill=1;targetPerimeterSpacing=10;endSize=6;" edge="1" parent="1" source="czWLCF9uIpFlwQmJJkkG-26" target="86raS9CCg4e7EtEVCKJU-18">
          <mxGeometry relative="1" as="geometry" />
        </mxCell>
        <mxCell id="czWLCF9uIpFlwQmJJkkG-26" value="$$\mathbf{b}_i$$" style="shape=waypoint;sketch=0;size=6;pointerEvents=1;points=[];fillColor=default;resizable=0;rotatable=0;perimeter=centerPerimeter;snapToPoint=1;fontSize=25;rounded=1;fontStyle=0;spacing=2;spacingBottom=10;strokeWidth=4;html=1;labelPosition=center;verticalLabelPosition=top;align=center;verticalAlign=middle;" vertex="1" parent="1">
          <mxGeometry x="690" y="500" width="20" height="20" as="geometry" />
        </mxCell>
        <mxCell id="czWLCF9uIpFlwQmJJkkG-43" value="" style="edgeStyle=orthogonalEdgeStyle;rounded=0;orthogonalLoop=1;jettySize=auto;html=1;strokeWidth=3;endFill=1;targetPerimeterSpacing=10;endSize=6;" edge="1" parent="1" source="czWLCF9uIpFlwQmJJkkG-27" target="czWLCF9uIpFlwQmJJkkG-28">
          <mxGeometry relative="1" as="geometry" />
        </mxCell>
        <mxCell id="czWLCF9uIpFlwQmJJkkG-27" value="$$\mathbf{W}_{\bar c}$$" style="shape=waypoint;sketch=0;size=6;pointerEvents=1;points=[];fillColor=default;resizable=0;rotatable=0;perimeter=centerPerimeter;snapToPoint=1;fontSize=25;rounded=1;fontStyle=0;spacing=2;spacingBottom=10;strokeWidth=4;labelPosition=center;verticalLabelPosition=top;align=center;verticalAlign=middle;html=1;" vertex="1" parent="1">
          <mxGeometry x="900" y="420" width="20" height="20" as="geometry" />
        </mxCell>
        <mxCell id="czWLCF9uIpFlwQmJJkkG-45" value="" style="edgeStyle=orthogonalEdgeStyle;rounded=0;orthogonalLoop=1;jettySize=auto;html=1;strokeWidth=3;endFill=1;targetPerimeterSpacing=10;endSize=6;" edge="1" parent="1" source="czWLCF9uIpFlwQmJJkkG-28" target="86raS9CCg4e7EtEVCKJU-28">
          <mxGeometry relative="1" as="geometry" />
        </mxCell>
        <mxCell id="czWLCF9uIpFlwQmJJkkG-28" value="$$\mathbb{\bullet}$$" style="ellipse;whiteSpace=wrap;html=1;aspect=fixed;fontStyle=0;fontSize=25;spacingBottom=2;strokeWidth=3;" vertex="1" parent="1">
          <mxGeometry x="890" y="490" width="40" height="40" as="geometry" />
        </mxCell>
        <mxCell id="czWLCF9uIpFlwQmJJkkG-46" value="" style="edgeStyle=orthogonalEdgeStyle;rounded=0;orthogonalLoop=1;jettySize=auto;html=1;strokeWidth=3;endFill=1;targetPerimeterSpacing=10;endSize=6;" edge="1" parent="1" source="czWLCF9uIpFlwQmJJkkG-29" target="86raS9CCg4e7EtEVCKJU-28">
          <mxGeometry relative="1" as="geometry" />
        </mxCell>
        <mxCell id="czWLCF9uIpFlwQmJJkkG-29" value="$$\mathbf{b}_{\bar c}&lt;br&gt;$$" style="shape=waypoint;sketch=0;size=6;pointerEvents=1;points=[];fillColor=default;resizable=0;rotatable=0;perimeter=centerPerimeter;snapToPoint=1;fontSize=25;rounded=1;fontStyle=0;spacing=2;spacingBottom=10;strokeWidth=4;html=1;labelPosition=center;verticalLabelPosition=top;align=center;verticalAlign=middle;" vertex="1" parent="1">
          <mxGeometry x="1060" y="500" width="20" height="20" as="geometry" />
        </mxCell>
        <mxCell id="czWLCF9uIpFlwQmJJkkG-47" value="" style="edgeStyle=orthogonalEdgeStyle;rounded=0;orthogonalLoop=1;jettySize=auto;html=1;strokeWidth=3;endFill=1;targetPerimeterSpacing=10;endSize=6;" edge="1" parent="1" source="czWLCF9uIpFlwQmJJkkG-30" target="czWLCF9uIpFlwQmJJkkG-31">
          <mxGeometry relative="1" as="geometry" />
        </mxCell>
        <mxCell id="czWLCF9uIpFlwQmJJkkG-30" value="$$\mathbf{W}_o$$" style="shape=waypoint;sketch=0;size=6;pointerEvents=1;points=[];fillColor=default;resizable=0;rotatable=0;perimeter=centerPerimeter;snapToPoint=1;fontSize=25;rounded=1;fontStyle=0;spacing=2;spacingBottom=10;strokeWidth=4;labelPosition=center;verticalLabelPosition=top;align=center;verticalAlign=middle;html=1;" vertex="1" parent="1">
          <mxGeometry x="1170" y="420" width="20" height="20" as="geometry" />
        </mxCell>
        <mxCell id="czWLCF9uIpFlwQmJJkkG-48" value="" style="edgeStyle=orthogonalEdgeStyle;rounded=0;orthogonalLoop=1;jettySize=auto;html=1;strokeWidth=3;endFill=1;targetPerimeterSpacing=10;endSize=6;" edge="1" parent="1" source="czWLCF9uIpFlwQmJJkkG-31" target="86raS9CCg4e7EtEVCKJU-29">
          <mxGeometry relative="1" as="geometry" />
        </mxCell>
        <mxCell id="czWLCF9uIpFlwQmJJkkG-31" value="$$\mathbb{\bullet}$$" style="ellipse;whiteSpace=wrap;html=1;aspect=fixed;fontStyle=0;fontSize=25;spacingBottom=2;strokeWidth=3;" vertex="1" parent="1">
          <mxGeometry x="1160" y="490" width="40" height="40" as="geometry" />
        </mxCell>
        <mxCell id="czWLCF9uIpFlwQmJJkkG-49" value="" style="edgeStyle=orthogonalEdgeStyle;rounded=0;orthogonalLoop=1;jettySize=auto;html=1;strokeWidth=3;endFill=1;targetPerimeterSpacing=10;endSize=6;" edge="1" parent="1" source="czWLCF9uIpFlwQmJJkkG-32" target="86raS9CCg4e7EtEVCKJU-29">
          <mxGeometry relative="1" as="geometry" />
        </mxCell>
        <mxCell id="czWLCF9uIpFlwQmJJkkG-32" value="$$\mathbf{b}_o$$" style="shape=waypoint;sketch=0;size=6;pointerEvents=1;points=[];fillColor=default;resizable=0;rotatable=0;perimeter=centerPerimeter;snapToPoint=1;fontSize=25;rounded=1;fontStyle=0;spacing=2;spacingBottom=10;strokeWidth=4;html=1;labelPosition=center;verticalLabelPosition=top;align=center;verticalAlign=middle;" vertex="1" parent="1">
          <mxGeometry x="1330" y="500" width="20" height="20" as="geometry" />
        </mxCell>
        <mxCell id="czWLCF9uIpFlwQmJJkkG-80" value="" style="edgeStyle=orthogonalEdgeStyle;rounded=0;orthogonalLoop=1;jettySize=auto;html=1;strokeWidth=3;endFill=1;targetPerimeterSpacing=10;endSize=6;" edge="1" parent="1" source="czWLCF9uIpFlwQmJJkkG-72" target="86raS9CCg4e7EtEVCKJU-30">
          <mxGeometry relative="1" as="geometry" />
        </mxCell>
        <mxCell id="czWLCF9uIpFlwQmJJkkG-72" value="$$\mathbb{\bullet}$$" style="ellipse;whiteSpace=wrap;html=1;aspect=fixed;fontStyle=0;fontSize=25;spacingBottom=2;strokeWidth=3;" vertex="1" parent="1">
          <mxGeometry x="330" y="570" width="40" height="40" as="geometry" />
        </mxCell>
        <mxCell id="czWLCF9uIpFlwQmJJkkG-81" value="" style="edgeStyle=orthogonalEdgeStyle;rounded=0;orthogonalLoop=1;jettySize=auto;html=1;strokeWidth=3;endFill=1;targetPerimeterSpacing=10;endSize=6;" edge="1" parent="1" source="czWLCF9uIpFlwQmJJkkG-73" target="86raS9CCg4e7EtEVCKJU-18">
          <mxGeometry relative="1" as="geometry" />
        </mxCell>
        <mxCell id="czWLCF9uIpFlwQmJJkkG-73" value="$$\mathbb{\bullet}$$" style="ellipse;whiteSpace=wrap;html=1;aspect=fixed;fontStyle=0;fontSize=25;spacingBottom=2;strokeWidth=3;" vertex="1" parent="1">
          <mxGeometry x="600" y="570" width="40" height="40" as="geometry" />
        </mxCell>
        <mxCell id="czWLCF9uIpFlwQmJJkkG-82" value="" style="edgeStyle=orthogonalEdgeStyle;rounded=0;orthogonalLoop=1;jettySize=auto;html=1;strokeWidth=3;endFill=1;targetPerimeterSpacing=10;endSize=6;" edge="1" parent="1" source="czWLCF9uIpFlwQmJJkkG-74" target="86raS9CCg4e7EtEVCKJU-28">
          <mxGeometry relative="1" as="geometry" />
        </mxCell>
        <mxCell id="czWLCF9uIpFlwQmJJkkG-74" value="$$\mathbb{\bullet}$$" style="ellipse;whiteSpace=wrap;html=1;aspect=fixed;fontStyle=0;fontSize=25;spacingBottom=2;strokeWidth=3;" vertex="1" parent="1">
          <mxGeometry x="970" y="570" width="40" height="40" as="geometry" />
        </mxCell>
        <mxCell id="czWLCF9uIpFlwQmJJkkG-86" value="" style="edgeStyle=orthogonalEdgeStyle;rounded=0;orthogonalLoop=1;jettySize=auto;html=1;strokeWidth=3;endFill=1;targetPerimeterSpacing=10;endSize=6;" edge="1" parent="1" source="czWLCF9uIpFlwQmJJkkG-75" target="86raS9CCg4e7EtEVCKJU-29">
          <mxGeometry relative="1" as="geometry" />
        </mxCell>
        <mxCell id="czWLCF9uIpFlwQmJJkkG-75" value="$$\mathbb{\bullet}$$" style="ellipse;whiteSpace=wrap;html=1;aspect=fixed;fontStyle=0;fontSize=25;spacingBottom=2;strokeWidth=3;" vertex="1" parent="1">
          <mxGeometry x="1240" y="570" width="40" height="40" as="geometry" />
        </mxCell>
        <mxCell id="czWLCF9uIpFlwQmJJkkG-87" value="" style="edgeStyle=orthogonalEdgeStyle;rounded=0;orthogonalLoop=1;jettySize=auto;html=1;strokeWidth=3;endFill=1;targetPerimeterSpacing=10;endSize=6;" edge="1" parent="1" source="czWLCF9uIpFlwQmJJkkG-76" target="czWLCF9uIpFlwQmJJkkG-72">
          <mxGeometry relative="1" as="geometry" />
        </mxCell>
        <mxCell id="czWLCF9uIpFlwQmJJkkG-76" value="$$\mathbf{U}_f$$" style="shape=waypoint;sketch=0;size=6;pointerEvents=1;points=[];fillColor=default;resizable=0;rotatable=0;perimeter=centerPerimeter;snapToPoint=1;fontSize=25;rounded=1;fontStyle=0;spacing=2;spacingBottom=10;strokeWidth=4;html=1;labelPosition=center;verticalLabelPosition=top;align=center;verticalAlign=middle;" vertex="1" parent="1">
          <mxGeometry x="420" y="580" width="20" height="20" as="geometry" />
        </mxCell>
        <mxCell id="czWLCF9uIpFlwQmJJkkG-88" value="" style="edgeStyle=orthogonalEdgeStyle;rounded=0;orthogonalLoop=1;jettySize=auto;html=1;strokeWidth=3;endFill=1;targetPerimeterSpacing=10;endSize=6;" edge="1" parent="1" source="czWLCF9uIpFlwQmJJkkG-77" target="czWLCF9uIpFlwQmJJkkG-73">
          <mxGeometry relative="1" as="geometry" />
        </mxCell>
        <mxCell id="czWLCF9uIpFlwQmJJkkG-77" value="$$\mathbf{U}_i$$" style="shape=waypoint;sketch=0;size=6;pointerEvents=1;points=[];fillColor=default;resizable=0;rotatable=0;perimeter=centerPerimeter;snapToPoint=1;fontSize=25;rounded=1;fontStyle=0;spacing=2;spacingBottom=10;strokeWidth=4;html=1;labelPosition=center;verticalLabelPosition=top;align=center;verticalAlign=middle;" vertex="1" parent="1">
          <mxGeometry x="690" y="580" width="20" height="20" as="geometry" />
        </mxCell>
        <mxCell id="czWLCF9uIpFlwQmJJkkG-89" value="" style="edgeStyle=orthogonalEdgeStyle;rounded=0;orthogonalLoop=1;jettySize=auto;html=1;strokeWidth=3;endFill=1;targetPerimeterSpacing=10;endSize=6;" edge="1" parent="1" source="czWLCF9uIpFlwQmJJkkG-78" target="czWLCF9uIpFlwQmJJkkG-74">
          <mxGeometry relative="1" as="geometry" />
        </mxCell>
        <mxCell id="czWLCF9uIpFlwQmJJkkG-78" value="$$\mathbf{U}_{\bar c}&lt;br&gt;$$" style="shape=waypoint;sketch=0;size=6;pointerEvents=1;points=[];fillColor=default;resizable=0;rotatable=0;perimeter=centerPerimeter;snapToPoint=1;fontSize=25;rounded=1;fontStyle=0;spacing=2;spacingBottom=10;strokeWidth=4;html=1;labelPosition=center;verticalLabelPosition=top;align=center;verticalAlign=middle;" vertex="1" parent="1">
          <mxGeometry x="1060" y="580" width="20" height="20" as="geometry" />
        </mxCell>
        <mxCell id="czWLCF9uIpFlwQmJJkkG-90" value="" style="edgeStyle=orthogonalEdgeStyle;rounded=0;orthogonalLoop=1;jettySize=auto;html=1;strokeWidth=3;endFill=1;targetPerimeterSpacing=10;endSize=6;" edge="1" parent="1" source="czWLCF9uIpFlwQmJJkkG-79" target="czWLCF9uIpFlwQmJJkkG-75">
          <mxGeometry relative="1" as="geometry" />
        </mxCell>
        <mxCell id="czWLCF9uIpFlwQmJJkkG-79" value="$$\mathbf{U}_o$$" style="shape=waypoint;sketch=0;size=6;pointerEvents=1;points=[];fillColor=default;resizable=0;rotatable=0;perimeter=centerPerimeter;snapToPoint=1;fontSize=25;rounded=1;fontStyle=0;spacing=2;spacingBottom=10;strokeWidth=4;html=1;labelPosition=center;verticalLabelPosition=top;align=center;verticalAlign=middle;" vertex="1" parent="1">
          <mxGeometry x="1330" y="580" width="20" height="20" as="geometry" />
        </mxCell>
      </root>
    </mxGraphModel>
  </diagram>
</mxfile>
